<svg width="24" height="24" viewBox="0 0 24 24" fill="none" xmlns="http://www.w3.org/2000/svg">
<path fill-rule="evenodd" clip-rule="evenodd" d="M12 23.25C13.4774 23.25 14.9403 22.959 16.3052 22.3936C17.6701 21.8283 18.9103 20.9996 19.955 19.955C20.9996 18.9103 21.8283 17.6701 22.3936 16.3052C22.959 14.9403 23.25 13.4774 23.25 12C23.25 10.5226 22.959 9.05972 22.3936 7.69481C21.8283 6.3299 20.9996 5.08971 19.955 4.04505C18.9103 3.00039 17.6701 2.17172 16.3052 1.60636C14.9403 1.04099 13.4774 0.75 12 0.75C9.01631 0.75 6.15483 1.93526 4.04505 4.04505C1.93526 6.15483 0.75 9.01631 0.75 12C0.75 14.9837 1.93526 17.8452 4.04505 19.955C6.15483 22.0647 9.01631 23.25 12 23.25ZM11.71 16.55L17.96 9.05L16.04 7.45L10.665 13.8988L7.88375 11.1163L6.11625 12.8837L9.86625 16.6337L10.8338 17.6013L11.71 16.55Z" fill="#00A31E"/>
</svg>
