<svg width="29" height="29" viewBox="0 0 29 29" fill="none" xmlns="http://www.w3.org/2000/svg">
<path fill-rule="evenodd" clip-rule="evenodd" d="M12.1736 1.58409C12.7474 1.10013 13.4792 0.833984 14.2361 0.833984C14.9929 0.833984 15.7247 1.10013 16.2986 1.58409C16.72 1.94129 17.1364 2.29709 17.5478 2.65149C18.095 2.54223 18.6457 2.43717 19.2 2.33631C19.9436 2.19851 20.7129 2.32668 21.3683 2.69755C22.0237 3.06842 22.5218 3.65742 22.7721 4.35764C22.9578 4.87312 23.1364 5.38511 23.3078 5.89359C23.8378 6.06869 24.3693 6.24729 24.9021 6.42939C26.3807 6.93787 27.255 8.4255 26.9636 9.93204C26.8578 10.4811 26.7493 11.0246 26.6378 11.5625C27.0093 11.9744 27.3807 12.3918 27.7521 12.8148C28.2457 13.3775 28.5171 14.0951 28.5171 14.8372C28.5171 15.5794 28.2457 16.2969 27.7521 16.8596C27.3836 17.2798 27.015 17.6945 26.6464 18.1035C26.755 18.6302 26.8607 19.1618 26.9636 19.6983C27.1041 20.4274 26.9734 21.1817 26.5952 21.8244C26.2169 22.467 25.6162 22.9554 24.9021 23.2009C24.3693 23.383 23.8386 23.5616 23.31 23.7367C23.1343 24.2466 22.9557 24.7586 22.7743 25.2727C22.5243 25.9737 22.026 26.5635 21.3701 26.9348C20.7142 27.3061 19.9441 27.4343 19.2 27.2961C18.6606 27.1963 18.1221 27.0927 17.5843 26.9851C17.1726 27.3418 16.7583 27.6955 16.3414 28.0462L15.645 27.2499L16.3436 28.0483C15.7695 28.532 15.0376 28.7978 14.2807 28.7974C13.5238 28.797 12.7921 28.5305 12.2186 28.0462C11.7971 27.6904 11.3807 27.3346 10.9693 26.9788C10.4221 27.0881 9.87142 27.1938 9.31713 27.2961C8.5733 27.4338 7.80378 27.3053 7.14832 26.934C6.49287 26.5627 5.99495 25.9733 5.74499 25.2727C5.55928 24.7586 5.38071 24.2466 5.20928 23.7367C4.67655 23.5618 4.14511 23.3832 3.61499 23.2009C2.90088 22.9554 2.3002 22.467 1.92197 21.8244C1.54374 21.1817 1.41303 20.4274 1.55356 19.6983C1.65928 19.1506 1.76785 18.6071 1.87928 18.0678C1.50474 17.653 1.1333 17.2356 0.764992 16.8155C0.271425 16.2528 0 15.5353 0 14.7931C0 14.0509 0.271425 13.3334 0.764992 12.7707C1.13356 12.3505 1.50213 11.9359 1.87071 11.5268C1.76213 11.0001 1.65642 10.4685 1.55356 9.93204C1.41303 9.20294 1.54374 8.44861 1.92197 7.80594C2.3002 7.16327 2.90088 6.67487 3.61499 6.42939C4.14785 6.24729 4.67856 6.06869 5.20713 5.89359C5.38142 5.38511 5.55999 4.87312 5.74285 4.35764C5.99285 3.65661 6.49111 3.06682 7.14703 2.6955C7.80295 2.32418 8.57298 2.19598 9.31713 2.33421C9.85999 2.43507 10.3986 2.53872 10.9328 2.64518C11.3414 2.29079 11.7536 1.93709 12.1736 1.58409ZM19.6264 11.7811C19.9421 11.5002 20.1311 11.1079 20.1518 10.6904C20.1725 10.2729 20.0232 9.86444 19.7368 9.55488C19.595 9.4016 19.4237 9.27721 19.2329 9.18882C19.042 9.10043 18.8353 9.04976 18.6245 9.03971C18.1987 9.01942 17.7821 9.1658 17.4664 9.44667C15.8914 10.8481 14.6893 12.1236 13.6736 13.6784C13.0085 14.7146 12.437 15.8057 11.9657 16.9394L10.3136 15.269C10.1667 15.1203 9.99134 15.0014 9.79759 14.9191C9.60383 14.8368 9.39544 14.7927 9.18432 14.7894C8.9732 14.7861 8.76348 14.8236 8.56714 14.8998C8.37079 14.9759 8.19167 15.0892 8.03999 15.2333C7.88831 15.3773 7.76706 15.5492 7.68314 15.7392C7.59922 15.9292 7.55429 16.1335 7.55091 16.3406C7.54752 16.5476 7.58576 16.7532 7.66342 16.9457C7.74109 17.1383 7.85667 17.3139 8.00356 17.4626L11.4171 20.9127C11.608 21.1059 11.846 21.248 12.1087 21.3255C12.3714 21.403 12.6499 21.4132 12.9177 21.3553C13.1856 21.2974 13.4339 21.1732 13.6389 20.9946C13.844 20.816 13.999 20.5889 14.0893 20.3349C14.8736 18.1287 15.5593 16.6306 16.3778 15.3783C17.1878 14.1386 18.1714 13.0733 19.6243 11.7811" fill="#A20000"/>
</svg>
