<svg width="30" height="30" viewBox="0 0 30 30" fill="none" xmlns="http://www.w3.org/2000/svg">
<path fill-rule="evenodd" clip-rule="evenodd" d="M15 1.5625C7.57875 1.5625 1.5625 7.57875 1.5625 15C1.5625 22.4212 7.57875 28.4375 15 28.4375C22.4212 28.4375 28.4375 22.4212 28.4375 15C28.4375 7.57875 22.4212 1.5625 15 1.5625ZM15.9375 7.5C15.9375 7.25136 15.8387 7.0129 15.6629 6.83709C15.4871 6.66127 15.2486 6.5625 15 6.5625C14.7514 6.5625 14.5129 6.66127 14.3371 6.83709C14.1613 7.0129 14.0625 7.25136 14.0625 7.5V15C14.0625 15.5175 14.4825 15.9375 15 15.9375H22.5C22.7486 15.9375 22.9871 15.8387 23.1629 15.6629C23.3387 15.4871 23.4375 15.2486 23.4375 15C23.4375 14.7514 23.3387 14.5129 23.1629 14.3371C22.9871 14.1613 22.7486 14.0625 22.5 14.0625H15.9375V7.5Z" fill="#A30F00"/>
</svg>
