<svg width="28" height="28" viewBox="0 0 28 28" fill="none" xmlns="http://www.w3.org/2000/svg">
<path d="M26.3636 1.64844C26.1207 1.40272 25.8313 1.20779 25.5123 1.07501C25.1933 0.942223 24.8511 0.874236 24.5056 0.875006H17.3026C16.8301 0.875887 16.3771 1.06306 16.0417 1.3959L1.64228 15.7924C1.15095 16.2847 0.875 16.9519 0.875 17.6475C0.875 18.343 1.15095 19.0102 1.64228 19.5025L8.49775 26.358C8.99022 26.8496 9.65761 27.1256 10.3534 27.1256C11.0492 27.1256 11.7166 26.8496 12.2091 26.358L26.6026 11.9674C26.9361 11.6326 27.124 11.1796 27.1253 10.707V3.50001C27.1274 3.15629 27.0612 2.81559 26.9304 2.49772C26.7996 2.17984 26.607 1.89115 26.3636 1.64844ZM21.5003 8.37501C21.1295 8.37501 20.7669 8.26504 20.4586 8.05901C20.1503 7.85298 19.9099 7.56015 19.768 7.21754C19.6261 6.87493 19.589 6.49793 19.6613 6.13421C19.7337 5.7705 19.9122 5.4364 20.1745 5.17418C20.4367 4.91196 20.7708 4.73338 21.1345 4.66103C21.4982 4.58869 21.8752 4.62582 22.2178 4.76773C22.5604 4.90965 22.8533 5.14997 23.0593 5.45831C23.2653 5.76665 23.3753 6.12917 23.3753 6.50001C23.3753 6.99729 23.1777 7.4742 22.8261 7.82583C22.4745 8.17746 21.9976 8.37501 21.5003 8.37501Z" fill="#A30F00"/>
</svg>
