<svg width="31" height="31" viewBox="0 0 31 31" fill="none" xmlns="http://www.w3.org/2000/svg">
<path d="M9.02467 0.0833435H21.9747C26.908 0.0833435 30.9163 4.09168 30.9163 9.02501V21.975C30.9163 24.3465 29.9743 26.6208 28.2974 28.2977C26.6205 29.9746 24.3462 30.9167 21.9747 30.9167H9.02467C4.09134 30.9167 0.0830078 26.9083 0.0830078 21.975V9.02501C0.0830078 6.65353 1.02507 4.37918 2.70196 2.7023C4.37885 1.02541 6.6532 0.0833435 9.02467 0.0833435ZM8.71634 3.16668C7.24439 3.16668 5.83273 3.75141 4.7919 4.79223C3.75107 5.83306 3.16634 7.24472 3.16634 8.71668V22.2833C3.16634 25.3513 5.64842 27.8333 8.71634 27.8333H22.283C23.755 27.8333 25.1666 27.2486 26.2075 26.2078C27.2483 25.167 27.833 23.7553 27.833 22.2833V8.71668C27.833 5.64876 25.3509 3.16668 22.283 3.16668H8.71634ZM23.5934 5.47918C24.1045 5.47918 24.5947 5.68221 24.9561 6.04361C25.3175 6.405 25.5205 6.89517 25.5205 7.40626C25.5205 7.91735 25.3175 8.40752 24.9561 8.76891C24.5947 9.13031 24.1045 9.33334 23.5934 9.33334C23.0823 9.33334 22.5922 9.13031 22.2308 8.76891C21.8694 8.40752 21.6663 7.91735 21.6663 7.40626C21.6663 6.89517 21.8694 6.405 22.2308 6.04361C22.5922 5.68221 23.0823 5.47918 23.5934 5.47918ZM15.4997 7.79168C17.5441 7.79168 19.5047 8.6038 20.9503 10.0494C22.3959 11.495 23.208 13.4556 23.208 15.5C23.208 17.5444 22.3959 19.505 20.9503 20.9506C19.5047 22.3962 17.5441 23.2083 15.4997 23.2083C13.4553 23.2083 11.4947 22.3962 10.0491 20.9506C8.60347 19.505 7.79134 17.5444 7.79134 15.5C7.79134 13.4556 8.60347 11.495 10.0491 10.0494C11.4947 8.6038 13.4553 7.79168 15.4997 7.79168ZM15.4997 10.875C14.273 10.875 13.0967 11.3623 12.2293 12.2296C11.3619 13.097 10.8747 14.2734 10.8747 15.5C10.8747 16.7266 11.3619 17.903 12.2293 18.7704C13.0967 19.6377 14.273 20.125 15.4997 20.125C16.7263 20.125 17.9027 19.6377 18.77 18.7704C19.6374 17.903 20.1247 16.7266 20.1247 15.5C20.1247 14.2734 19.6374 13.097 18.77 12.2296C17.9027 11.3623 16.7263 10.875 15.4997 10.875Z" fill="white"/>
</svg>
