<svg width="31" height="31" viewBox="0 0 31 31" fill="none" xmlns="http://www.w3.org/2000/svg">
<path d="M26.3685 4.56958C24.9549 3.14216 23.2713 2.01037 21.4159 1.24014C19.5605 0.469921 17.5703 0.0766796 15.5614 0.083335C7.14391 0.083335 0.28349 6.94375 0.28349 15.3613C0.28349 18.0592 0.992656 20.68 2.31849 22.9925L0.160156 30.9167L8.25391 28.7892C10.4893 30.0071 13.0022 30.6546 15.5614 30.6546C23.9789 30.6546 30.8393 23.7942 30.8393 15.3767C30.8393 11.2913 29.2514 7.4525 26.3685 4.56958ZM15.5614 28.0646C13.2797 28.0646 11.0443 27.4479 9.08641 26.2917L8.62391 26.0142L3.81391 27.2783L5.09349 22.5917L4.78516 22.1138C3.51721 20.0896 2.84408 17.7497 2.84266 15.3613C2.84266 8.36209 8.54682 2.65792 15.546 2.65792C18.9377 2.65792 22.1289 3.98375 24.5185 6.38875C25.7019 7.56637 26.6397 8.96726 27.2775 10.5101C27.9153 12.053 28.2404 13.7072 28.2339 15.3767C28.2647 22.3758 22.5606 28.0646 15.5614 28.0646ZM22.5297 18.5679C22.1443 18.3829 20.2635 17.4579 19.9243 17.3192C19.5697 17.1958 19.3231 17.1342 19.061 17.5042C18.7989 17.8896 18.0743 18.7529 17.8585 18.9996C17.6427 19.2617 17.4114 19.2925 17.026 19.0921C16.6406 18.9071 15.4072 18.4908 13.9581 17.1958C12.8172 16.1783 12.0618 14.9296 11.8306 14.5442C11.6147 14.1588 11.7997 13.9583 12.0002 13.7579C12.1697 13.5883 12.3856 13.3108 12.5706 13.095C12.7556 12.8792 12.8327 12.7096 12.956 12.4629C13.0793 12.2008 13.0177 11.985 12.9252 11.8C12.8327 11.615 12.0618 9.73417 11.7535 8.96334C11.4452 8.22334 11.1214 8.31583 10.8902 8.30042H10.1502C9.88807 8.30042 9.48724 8.39292 9.13266 8.77833C8.79349 9.16375 7.80682 10.0888 7.80682 11.9696C7.80682 13.8504 9.17891 15.6696 9.36391 15.9163C9.54891 16.1783 12.0618 20.0325 15.8852 21.6821C16.7947 22.0829 17.5039 22.3142 18.0589 22.4838C18.9685 22.7767 19.801 22.7304 20.4639 22.6379C21.2039 22.53 22.7302 21.7129 23.0385 20.8188C23.3622 19.9246 23.3622 19.1692 23.2543 18.9996C23.1464 18.83 22.9152 18.7529 22.5297 18.5679Z" fill="white"/>
</svg>
